<?xml version="1.0" encoding="utf-8"?>
<!-- Generator: Adobe Illustrator 22.0.1, SVG Export Plug-In . SVG Version: 6.00 Build 0)  -->
<svg version="1.1" id="Layer_1" xmlns="http://www.w3.org/2000/svg" xmlns:xlink="http://www.w3.org/1999/xlink" x="0px" y="0px"
	 viewBox="0 0 1280 800" style="enable-background:new 0 0 1280 800;" xml:space="preserve">
<style type="text/css">
	.st0{fill:#009245;}
	.st1{fill:#39B54A;}
	.st2{fill:#FFFFFF;}
</style>
<path class="st0" d="M296.3,207.1l-186.7,36.4c-27.2,5.3-53.5-12.4-58.7-39.6l0,0c-5.3-27.2,12.4-53.5,39.6-58.7l186.7-36.4
	c27.2-5.3,53.5,12.4,58.7,39.6v0C341.2,175.5,323.5,201.8,296.3,207.1z"/>
<path class="st1" d="M288.5,190.6H50.1C22.5,190.6,0,168.1,0,140.5V50.5C0,22.9,22.5,0.4,50.1,0.4h238.4c27.5,0,50.1,22.5,50.1,50.1
	v90.1C338.6,168.1,316,190.6,288.5,190.6z"/>
<g>
	<g>
		<path class="st2" d="M44.2,122.2c-2.9-1.8-5.1-4.4-6.6-7.8c-1.5-3.4-2.3-7.5-2.3-12.2V89.9c0-4.8,0.7-8.9,2.2-12.3
			c1.5-3.4,3.6-6,6.4-7.8c2.8-1.8,6.2-2.7,10.1-2.7c3.3,0,6.3,0.9,9.1,2.6s4.9,4.1,6.6,7.3l-1.1,11.4c0-2.4-0.4-4.4-1.3-6.1
			c-0.9-1.7-2.1-3-3.7-3.8c-1.6-0.9-3.6-1.3-5.9-1.3c-3.6,0-6.4,1.1-8.4,3.4s-3,5.4-3,9.5v12.1c0,4,1,7.2,3,9.4s4.8,3.3,8.4,3.3
			c2.3,0,4.3-0.5,5.9-1.4c1.6-0.9,2.9-2.2,3.7-3.9s1.3-3.8,1.3-6.2l0.8,11.8c-1.1,2.8-2.9,5.1-5.5,6.9s-5.6,2.8-9.3,2.8
			C50.6,124.9,47.1,124,44.2,122.2z M49.4,146.6c0,0-1.7-0.8-5-2.3c-3.3-1.6-5.9-3.8-7.7-6.6l7.4-6.7c1.4,2,3.1,3.5,5.1,4.6
			s4.1,1.6,6.3,1.6c4.2,0,7.4-1.2,9.7-3.5c2.3-2.3,3.4-5.6,3.4-9.8V68.2h11v54.1c0,5.1-0.9,9.5-2.8,13.2s-4.6,6.4-8.2,8.3
			c-3.6,1.9-7.9,2.8-12.9,2.8C51.5,146.6,49.4,146.6,49.4,146.6z"/>
		<path class="st2" d="M96.3,68.2h11v55.8h-11V68.2z M123.3,78.7c-1.5-0.6-3.2-0.9-5.1-0.9c-3.5,0-6.2,1-8.1,2.9
			c-1.9,1.9-2.9,4.6-2.9,8l-1.1-10.7c1.7-3.3,3.9-5.9,6.7-7.8c2.7-1.8,5.7-2.8,9-2.8c2.5,0,4.8,0.4,6.9,1.1c2.1,0.7,3.9,1.8,5.4,3.2
			l-7.1,9.7C126,80.2,124.8,79.3,123.3,78.7z"/>
		<path class="st2" d="M145.6,120.5c-3.4-2.8-5.1-7.2-5.1-13c0-5.5,1.6-9.6,4.7-12.4c3.1-2.8,7.8-4.1,14.1-4.1h15.8l0.8,8.8h-16.5
			c-2.9,0-5,0.6-6.4,1.9c-1.4,1.3-2.1,3.2-2.1,5.8c0,2.8,0.9,4.9,2.8,6.3c1.9,1.4,4.7,2,8.6,2c4.2,0,7.3-0.4,9.4-1.3
			c2.1-0.9,3.1-2.3,3.1-4.2l1.1,7.8c-1,1.5-2.2,2.7-3.6,3.7c-1.4,1-3.1,1.7-4.9,2.2c-1.9,0.5-4,0.7-6.3,0.7
			C154.2,124.7,149,123.3,145.6,120.5z M174.7,88.6c0-3.7-1-6.5-2.9-8.5c-2-2-4.7-3-8.3-3c-2.2,0-4.4,0.3-6.5,1
			c-2.1,0.7-4,1.6-5.7,2.8l-8-5.5c2.1-2.5,4.9-4.5,8.4-5.9c3.5-1.4,7.3-2.1,11.5-2.1c4.6,0,8.6,0.8,11.9,2.4c3.3,1.6,5.8,4,7.5,7.1
			c1.7,3.1,2.6,6.8,2.6,11.2v35.8h-10.4V88.6z"/>
		<path class="st2" d="M216.5,124.7c0,0-1.4-0.3-4.3-1c-2.9-0.6-5.6-1.6-8.1-2.9c-2.5-1.3-4.8-2.9-6.9-4.8l6.5-8c3,2.3,6,4,9,5.2
			c3,1.1,5.9,1.7,8.8,1.7c4.3,0,7.6-0.7,9.7-2c2.2-1.3,3.2-3.4,3.2-6c0-1.8-0.6-3.1-1.8-4c-1.2-0.9-2.7-1.5-4.4-1.8
			c-1.8-0.3-4.2-0.6-7.4-0.8c-0.3,0-0.6,0-0.9,0c-0.3,0-0.6,0-0.9-0.1c-0.1,0-0.3,0-0.4,0c-0.1,0-0.3,0-0.4,0
			c-3.6-0.3-6.7-0.8-9.2-1.6c-2.5-0.8-4.6-2.2-6.3-4.3c-1.7-2.1-2.5-5.1-2.5-9.1c0-3.9,0.8-7.2,2.4-9.8c1.6-2.6,4-4.6,7.2-5.9
			c3.2-1.3,7.2-2,12-2c2.9,0,5.7,0.3,8.3,0.8s5.1,1.3,7.5,2.4c2.4,1.1,4.7,2.4,6.9,4l-6.6,8c-2.8-1.8-5.5-3.1-8.2-4
			c-2.7-0.9-5.3-1.3-7.9-1.3c-3.7,0-6.5,0.6-8.4,1.9c-1.9,1.3-2.8,3.2-2.8,5.7c0,1.5,0.5,2.6,1.6,3.4c1.1,0.8,2.4,1.3,4,1.5
			c1.6,0.3,3.9,0.5,6.9,0.6c0.2,0,0.4,0.1,0.7,0.1c0.2,0,0.5,0,0.7,0.1c0.1,0,0.2,0,0.3,0s0.2,0,0.3,0.1c3.9,0.3,7.2,0.8,10,1.6
			c2.7,0.8,5,2.3,6.9,4.7c1.9,2.3,2.8,5.7,2.8,10.1c0,4-0.9,7.3-2.6,10s-4.3,4.6-7.8,5.9c-3.5,1.3-7.8,2-13,2
			C218.2,124.7,216.5,124.7,216.5,124.7z"/>
		<path class="st2" d="M273.6,124.7c0,0-1.4-0.3-4.3-1c-2.9-0.6-5.6-1.6-8.1-2.9c-2.5-1.3-4.8-2.9-6.9-4.8l6.5-8c3,2.3,6,4,9,5.2
			c3,1.1,5.9,1.7,8.8,1.7c4.3,0,7.6-0.7,9.7-2c2.2-1.3,3.2-3.4,3.2-6c0-1.8-0.6-3.1-1.8-4c-1.2-0.9-2.7-1.5-4.4-1.8
			c-1.8-0.3-4.2-0.6-7.4-0.8c-0.3,0-0.6,0-0.9,0c-0.3,0-0.6,0-0.9-0.1c-0.1,0-0.3,0-0.4,0c-0.1,0-0.3,0-0.4,0
			c-3.6-0.3-6.7-0.8-9.2-1.6c-2.5-0.8-4.6-2.2-6.3-4.3c-1.7-2.1-2.5-5.1-2.5-9.1c0-3.9,0.8-7.2,2.4-9.8c1.6-2.6,4-4.6,7.2-5.9
			c3.2-1.3,7.2-2,12-2c2.9,0,5.7,0.3,8.3,0.8s5.1,1.3,7.5,2.4c2.4,1.1,4.7,2.4,6.9,4l-6.6,8c-2.8-1.8-5.5-3.1-8.2-4
			c-2.7-0.9-5.3-1.3-7.9-1.3c-3.7,0-6.5,0.6-8.4,1.9c-1.9,1.3-2.8,3.2-2.8,5.7c0,1.5,0.5,2.6,1.6,3.4c1.1,0.8,2.4,1.3,4,1.5
			c1.6,0.3,3.9,0.5,6.9,0.6c0.2,0,0.4,0.1,0.7,0.1c0.2,0,0.5,0,0.7,0.1c0.1,0,0.2,0,0.3,0s0.2,0,0.3,0.1c3.9,0.3,7.2,0.8,10,1.6
			c2.7,0.8,5,2.3,6.9,4.7c1.9,2.3,2.8,5.7,2.8,10.1c0,4-0.9,7.3-2.6,10s-4.3,4.6-7.8,5.9c-3.5,1.3-7.8,2-13,2
			C275.2,124.7,273.6,124.7,273.6,124.7z"/>
		<path class="st1" d="M379.5,122.2c-2.9-1.8-5.1-4.4-6.6-7.8c-1.5-3.4-2.3-7.5-2.3-12.2V89.9c0-4.8,0.7-8.9,2.2-12.3
			c1.5-3.4,3.6-6,6.4-7.8c2.8-1.8,6.2-2.7,10.1-2.7c3.3,0,6.3,0.9,9,2.6c2.7,1.7,5,4.1,6.6,7.3l-1.1,11.4c0-2.4-0.4-4.4-1.3-6.1
			c-0.9-1.7-2.1-3-3.7-3.8c-1.6-0.9-3.6-1.3-5.9-1.3c-3.6,0-6.4,1.1-8.4,3.4c-2,2.3-3,5.4-3,9.5v12.1c0,4,1,7.2,3,9.4
			c2,2.2,4.8,3.3,8.4,3.3c2.3,0,4.3-0.5,5.9-1.4c1.6-0.9,2.9-2.2,3.7-3.9s1.3-3.8,1.3-6.2l0.8,11.8c-1.1,2.8-2.9,5.1-5.5,6.9
			c-2.5,1.9-5.6,2.8-9.3,2.8C385.8,124.9,382.3,124,379.5,122.2z M403.9,45.8h11v78.1h-11V45.8z"/>
		<path class="st1" d="M431.5,45.8h11v11h-11V45.8z M431.5,68.2h11v55.8h-11V68.2z"/>
		<path class="st1" d="M459.1,68.2h11v55.8h-11V68.2z M493,90.1c0-3.9-1-7-3.1-9.1s-4.9-3.2-8.6-3.2c-3.6,0-6.3,0.9-8.3,2.8
			c-2,1.9-2.9,4.6-2.9,8L469,77.9c1.7-3.4,4-6,6.7-7.8c2.8-1.8,5.8-2.7,9.2-2.7c6.1,0,10.7,2,14,5.9c3.3,4,5,9.6,5,16.8v33.8h-11
			V90.1z"/>
		<path class="st1" d="M529.6,121.9c-3.4-1.9-6.1-4.7-7.9-8.3c-1.8-3.6-2.7-8-2.7-13.1v-9.1c0-5,0.9-9.4,2.7-13
			c1.8-3.6,4.4-6.3,7.9-8.2s7.6-2.8,12.4-2.8s9,0.9,12.4,2.8s6.1,4.6,7.9,8.2c1.8,3.6,2.7,7.9,2.7,13v9.2c0,5.1-0.9,9.4-2.7,13
			c-1.8,3.6-4.4,6.3-7.9,8.2c-3.4,1.9-7.6,2.8-12.4,2.8S533,123.8,529.6,121.9z M550.9,110.7c2.1-2.4,3.1-5.8,3.1-10.1v-9.2
			c0-4.3-1-7.7-3.1-10c-2.1-2.4-5.1-3.5-8.9-3.5c-3.8,0-6.8,1.2-8.9,3.5c-2.1,2.4-3.1,5.7-3.1,10v9.2c0,4.3,1,7.7,3.1,10.1
			c2.1,2.4,5.1,3.6,8.9,3.6C545.8,114.3,548.8,113.1,550.9,110.7z"/>
		<path class="st1" d="M595.3,124.7c0,0-1.4-0.3-4.3-1c-2.9-0.6-5.6-1.6-8.1-2.9c-2.5-1.3-4.8-2.9-6.9-4.8l6.5-8c3,2.3,6,4,9,5.2
			c3,1.1,5.9,1.7,8.8,1.7c4.3,0,7.6-0.7,9.7-2c2.2-1.3,3.2-3.4,3.2-6c0-1.8-0.6-3.1-1.8-4c-1.2-0.9-2.7-1.5-4.4-1.8
			c-1.8-0.3-4.2-0.6-7.4-0.8c-0.3,0-0.6,0-0.9,0c-0.3,0-0.6,0-0.9-0.1c-0.1,0-0.3,0-0.4,0c-0.1,0-0.3,0-0.4,0
			c-3.6-0.3-6.7-0.8-9.2-1.6c-2.5-0.8-4.6-2.2-6.3-4.3C579.9,92,579,89,579,85c0-3.9,0.8-7.2,2.4-9.8c1.6-2.6,4-4.6,7.2-5.9
			c3.2-1.3,7.2-2,12-2c2.9,0,5.7,0.3,8.3,0.8c2.6,0.5,5.1,1.3,7.5,2.4c2.4,1.1,4.7,2.4,6.9,4l-6.6,8c-2.8-1.8-5.5-3.1-8.2-4
			c-2.7-0.9-5.3-1.3-7.9-1.3c-3.7,0-6.5,0.6-8.4,1.9c-1.9,1.3-2.8,3.2-2.8,5.7c0,1.5,0.5,2.6,1.6,3.4c1.1,0.8,2.4,1.3,4,1.5
			c1.6,0.3,3.9,0.5,6.9,0.6c0.2,0,0.4,0.1,0.7,0.1c0.2,0,0.5,0,0.7,0.1c0.1,0,0.2,0,0.3,0s0.2,0,0.3,0.1c3.9,0.3,7.2,0.8,10,1.6
			c2.7,0.8,5,2.3,6.9,4.7c1.9,2.3,2.8,5.7,2.8,10.1c0,4-0.9,7.3-2.6,10s-4.3,4.6-7.8,5.9c-3.5,1.3-7.8,2-13,2
			C596.9,124.7,595.3,124.7,595.3,124.7z"/>
		<path class="st1" d="M640,120.5c-3.4-2.8-5.1-7.2-5.1-13c0-5.5,1.6-9.6,4.7-12.4c3.1-2.8,7.8-4.1,14.1-4.1h15.8l0.8,8.8h-16.5
			c-2.9,0-5,0.6-6.4,1.9c-1.4,1.3-2.1,3.2-2.1,5.8c0,2.8,0.9,4.9,2.8,6.3c1.9,1.4,4.7,2,8.6,2c4.2,0,7.3-0.4,9.4-1.3
			c2.1-0.9,3.1-2.3,3.1-4.2l1.1,7.8c-1,1.5-2.2,2.7-3.6,3.7c-1.4,1-3.1,1.7-4.9,2.2c-1.9,0.5-4,0.7-6.3,0.7
			C648.5,124.7,643.4,123.3,640,120.5z M669,88.6c0-3.7-1-6.5-2.9-8.5c-2-2-4.7-3-8.3-3c-2.2,0-4.4,0.3-6.5,1
			c-2.1,0.7-4,1.6-5.7,2.8l-8-5.5c2.1-2.5,4.9-4.5,8.4-5.9c3.5-1.4,7.3-2.1,11.5-2.1c4.6,0,8.6,0.8,11.9,2.4c3.3,1.6,5.8,4,7.5,7.1
			c1.7,3.1,2.6,6.8,2.6,11.2v35.8H669V88.6z"/>
		<path class="st1" d="M707.1,102.1c0,3.9,1,6.9,3,9.1c2,2.1,4.8,3.2,8.4,3.2c3.6,0,6.4-0.9,8.3-2.8c2-1.9,3-4.6,3-8.1l0.8,11.7
			c-1.1,2.8-3,5.1-5.6,6.9c-2.6,1.9-5.7,2.8-9.5,2.8c-6.2,0-10.9-2-14.3-5.9c-3.3-4-5-9.5-5-16.7V68.2h11V102.1z M729.7,68.2h10.9
			v55.8h-10.9V68.2z"/>
		<path class="st1" d="M757.3,68.2h11v55.8h-11V68.2z M784.3,78.7c-1.5-0.6-3.2-0.9-5.1-0.9c-3.5,0-6.2,1-8.1,2.9
			c-1.9,1.9-2.9,4.6-2.9,8l-1.1-10.7c1.7-3.3,3.9-5.9,6.7-7.8c2.7-1.8,5.7-2.8,9-2.8c2.5,0,4.8,0.4,6.9,1.1c2.1,0.7,3.9,1.8,5.4,3.2
			l-7.1,9.7C787,80.2,785.8,79.3,784.3,78.7z"/>
	</g>
</g>
</svg>
