<?xml version="1.0" encoding="utf-8"?>
<!-- Generator: Adobe Illustrator 22.0.1, SVG Export Plug-In . SVG Version: 6.00 Build 0)  -->
<svg version="1.1" id="Layer_1" xmlns="http://www.w3.org/2000/svg" xmlns:xlink="http://www.w3.org/1999/xlink" x="0px" y="0px"
	 viewBox="0 0 220 220" style="enable-background:new 0 0 220 220;" xml:space="preserve">
<style type="text/css">
	.st0{fill:#009245;}
	.st1{fill:#39B54A;}
	.st2{fill:#FFFFFF;}
</style>
<path class="st0" d="M162.7,207.6l-54,10.5c-27.2,5.3-53.5-12.4-58.7-39.4l0,0c-5.3-27,12.4-53.2,39.6-58.4l54-10.5
	c27.2-5.3,53.5,12.4,58.7,39.4l0,0C207.6,176.2,189.9,202.3,162.7,207.6z"/>
<path class="st1" d="M153.1,189.2H63.1c-27.5,0-50.1-22.5-50.1-50.1V50.1C13,22.5,35.5,0,63.1,0h90.1c27.5,0,50.1,22.5,50.1,50.1
	v89.1C203.2,166.7,180.7,189.2,153.1,189.2z"/>
<g>
	<g>
		<path class="st2" d="M136.6,89.3v15.2c0,5.8-1.2,10.9-3.5,15.3c-2.3,4.4-5.7,7.8-10,10.2c-4.3,2.4-9.3,3.6-14.9,3.6
			c-5.7,0-10.7-1.1-15.1-3.4c-4.4-2.3-7.7-5.5-10.1-9.6c-2.4-4.1-3.6-8.9-3.6-14.4V83.3c0-5.8,1.2-10.8,3.5-15.2
			c2.3-4.4,5.7-7.8,10-10.2s9.3-3.6,14.9-3.6c4.7,0,9,1,12.9,2.9c3.9,1.9,7.2,4.6,9.9,8.1c2.6,3.5,4.4,7.5,5.3,12.1H120
			c-0.5-1.6-1.4-3.1-2.7-4.2c-1.2-1.2-2.7-2.1-4.4-2.7c-1.7-0.6-3.4-0.9-5.2-0.9c-2.6,0-4.9,0.6-6.9,1.7c-2,1.1-3.5,2.8-4.6,4.9
			c-1.1,2.1-1.6,4.5-1.6,7.3v22.9c0,2.4,0.6,4.6,1.7,6.4c1.1,1.9,2.7,3.3,4.7,4.3c2,1,4.4,1.5,7.1,1.5c2.6,0,5-0.5,7-1.6
			c2-1.1,3.5-2.7,4.6-4.7c1.1-2.1,1.6-4.5,1.6-7.3v-1.3h-11.8V89.3H136.6z"/>
	</g>
</g>
</svg>
