<?xml version="1.0" encoding="utf-8"?>
<!-- Generator: Adobe Illustrator 22.0.1, SVG Export Plug-In . SVG Version: 6.00 Build 0)  -->
<svg version="1.1" id="Layer_1" xmlns="http://www.w3.org/2000/svg" xmlns:xlink="http://www.w3.org/1999/xlink" x="0px" y="0px"
	 viewBox="0 0 1036 220" style="enable-background:new 0 0 1036 220;" xml:space="preserve">
<style type="text/css">
	.st0{fill:#009245;}
	.st1{fill:#39B54A;}
	.st2{fill:#FFFFFF;}
</style>
<path class="st0" d="M149.7,207.6l-54,10.5c-27.2,5.3-53.5-12.4-58.7-39.4l0,0c-5.3-27,12.4-53.2,39.6-58.4l54-10.5
	c27.2-5.3,53.5,12.4,58.7,39.4l0,0C194.6,176.2,176.9,202.3,149.7,207.6z"/>
<path class="st1" d="M140.1,189.2H50.1C22.5,189.2,0,166.7,0,139.2V50.1C0,22.5,22.5,0,50.1,0h90.1c27.5,0,50.1,22.5,50.1,50.1v89.1
	C190.2,166.7,167.7,189.2,140.1,189.2z"/>
<g>
	<g>
		<path class="st2" d="M123.6,89.3v15.2c0,5.8-1.2,10.9-3.5,15.3c-2.3,4.4-5.7,7.8-10,10.2c-4.3,2.4-9.3,3.6-14.9,3.6
			c-5.7,0-10.7-1.1-15.1-3.4c-4.4-2.3-7.7-5.5-10.1-9.6c-2.4-4.1-3.6-8.9-3.6-14.4V83.3c0-5.8,1.2-10.8,3.5-15.2
			c2.3-4.4,5.7-7.8,10-10.2s9.3-3.6,14.9-3.6c4.7,0,9,1,12.9,2.9c3.9,1.9,7.2,4.6,9.9,8.1c2.6,3.5,4.4,7.5,5.3,12.1H107
			c-0.5-1.6-1.4-3.1-2.7-4.2c-1.2-1.2-2.7-2.1-4.4-2.7c-1.7-0.6-3.4-0.9-5.2-0.9c-2.6,0-4.9,0.6-6.9,1.7c-2,1.1-3.5,2.8-4.6,4.9
			c-1.1,2.1-1.6,4.5-1.6,7.3v22.9c0,2.4,0.6,4.6,1.7,6.4c1.1,1.9,2.7,3.3,4.7,4.3c2,1,4.4,1.5,7.1,1.5c2.6,0,5-0.5,7-1.6
			c2-1.1,3.5-2.7,4.6-4.7c1.1-2.1,1.6-4.5,1.6-7.3v-1.3H96.5V89.3H123.6z"/>
	</g>
</g>
<g>
	<g>
		<path d="M287.4,105.5v14.1c0,5.4-1.1,10.1-3.2,14.2c-2.2,4.1-5.2,7.2-9.2,9.5c-4,2.2-8.6,3.3-13.8,3.3c-5.3,0-9.9-1-13.9-3.1
			c-4-2.1-7.1-5.1-9.3-8.9c-2.2-3.8-3.3-8.3-3.3-13.3V99.9c0-5.4,1.1-10.1,3.2-14.1c2.2-4.1,5.2-7.2,9.2-9.4c4-2.2,8.6-3.3,13.8-3.3
			c4.3,0,8.3,0.9,11.9,2.7c3.6,1.8,6.7,4.3,9.1,7.5c2.4,3.2,4.1,7,4.9,11.3h-14.7c-0.5-1.5-1.3-2.8-2.5-3.9c-1.1-1.1-2.5-1.9-4-2.5
			c-1.5-0.6-3.1-0.9-4.8-0.9c-2.4,0-4.5,0.5-6.4,1.6c-1.8,1.1-3.3,2.6-4.3,4.5c-1,2-1.5,4.2-1.5,6.7v21.3c0,2.2,0.5,4.2,1.5,5.9
			c1,1.7,2.5,3,4.4,4c1.9,0.9,4.1,1.4,6.5,1.4c2.4,0,4.6-0.5,6.4-1.5c1.8-1,3.2-2.5,4.2-4.4c1-1.9,1.5-4.2,1.5-6.8v-1.2h-10.9v-13.1
			H287.4z"/>
		<path d="M301.8,73.7h13.6v72.1h-13.6V73.7z M307.2,103.7h25.1c1.4,0,2.6-0.3,3.7-1s1.9-1.7,2.5-3c0.6-1.3,0.9-2.8,0.9-4.5
			c0-1.7-0.3-3.2-0.9-4.5c-0.6-1.3-1.4-2.3-2.5-3c-1.1-0.7-2.3-1-3.7-1h-25.1V73.7h26.2c4,0,7.5,0.9,10.5,2.7c3,1.8,5.3,4.3,7,7.6
			c1.7,3.3,2.5,7,2.5,11.3c0,4.3-0.8,8.1-2.5,11.3c-1.7,3.3-4,5.8-7,7.6c-3,1.8-6.5,2.7-10.4,2.7h-26.2V103.7z M322.4,114.6
			l14.5-2.3l19.4,33.5h-16.5L322.4,114.6z"/>
		<path d="M388.6,73.7h8.6l27.6,72.1h-14.6l-17.3-49.2l-17.3,49.2h-14.6L388.6,73.7z M374.3,121.2h37.9v13.1h-37.9V121.2z"/>
		<path d="M451.2,146.6c0,0-1.6-0.3-4.9-1c-3.3-0.7-6.4-1.7-9.3-3c-2.9-1.3-5.5-2.9-7.8-4.8l6.3-11.2c2.8,2.3,6,4,9.6,5.3
			c3.6,1.2,7.4,1.9,11.2,1.9c4.4,0,7.9-0.8,10.3-2.3c2.4-1.5,3.7-3.6,3.7-6.4v0c0-1.9-0.5-3.4-1.6-4.6s-2.5-2-4.3-2.5
			c-1.8-0.5-4-1-6.7-1.4c-0.1,0-0.2-0.1-0.3-0.1c-0.1,0-0.2,0-0.3,0l-1.1-0.1c-4.8-0.8-8.8-1.7-12-2.9c-3.2-1.1-5.9-3.1-8.1-6
			c-2.2-2.9-3.3-6.9-3.3-12.2v0c0-4.7,1-8.6,3.1-11.9c2.1-3.3,5.1-5.8,9.1-7.6c4-1.7,8.8-2.6,14.4-2.6c2.6,0,5.2,0.3,7.9,0.9
			c2.7,0.6,5.3,1.5,7.9,2.6c2.6,1.1,5,2.5,7.3,4.1L476.7,92c-2.8-1.9-5.7-3.4-8.7-4.5c-3-1.1-5.9-1.6-8.7-1.6
			c-4.2,0-7.4,0.7-9.7,2.1c-2.3,1.4-3.4,3.3-3.4,5.8v0c0,2.1,0.6,3.7,1.8,4.9c1.2,1.2,2.7,2.1,4.4,2.7c1.8,0.6,4.2,1.2,7.4,1.8
			c0.1,0,0.3,0.1,0.4,0.1c0.1,0,0.3,0,0.4,0.1c0.2,0,0.4,0.1,0.6,0.1c0.2,0,0.4,0.1,0.6,0.1c4.6,0.9,8.4,2,11.4,3.2
			c3.1,1.3,5.6,3.3,7.7,6.1c2,2.8,3.1,6.7,3.1,11.6v0.1c0,4.6-1.1,8.5-3.2,11.8s-5.3,5.8-9.4,7.5c-4.1,1.7-9.1,2.6-14.8,2.6
			C452.9,146.6,451.2,146.6,451.2,146.6z"/>
		<path d="M513.7,146.6c0,0-1.6-0.3-4.9-1c-3.3-0.7-6.4-1.7-9.3-3c-2.9-1.3-5.5-2.9-7.8-4.8l6.3-11.2c2.8,2.3,6,4,9.6,5.3
			c3.6,1.2,7.4,1.9,11.2,1.9c4.4,0,7.9-0.8,10.3-2.3c2.4-1.5,3.7-3.6,3.7-6.4v0c0-1.9-0.5-3.4-1.6-4.6s-2.5-2-4.3-2.5
			c-1.8-0.5-4-1-6.7-1.4c-0.1,0-0.2-0.1-0.3-0.1c-0.1,0-0.2,0-0.3,0l-1.1-0.1c-4.8-0.8-8.8-1.7-12-2.9c-3.2-1.1-5.9-3.1-8.1-6
			c-2.2-2.9-3.3-6.9-3.3-12.2v0c0-4.7,1-8.6,3.1-11.9c2.1-3.3,5.1-5.8,9.1-7.6c4-1.7,8.8-2.6,14.4-2.6c2.6,0,5.2,0.3,7.9,0.9
			c2.7,0.6,5.3,1.5,7.9,2.6c2.6,1.1,5,2.5,7.3,4.1L539.2,92c-2.8-1.9-5.7-3.4-8.7-4.5c-3-1.1-5.9-1.6-8.7-1.6
			c-4.2,0-7.4,0.7-9.7,2.1c-2.3,1.4-3.4,3.3-3.4,5.8v0c0,2.1,0.6,3.7,1.8,4.9c1.2,1.2,2.7,2.1,4.4,2.7c1.8,0.6,4.2,1.2,7.4,1.8
			c0.1,0,0.3,0.1,0.4,0.1c0.1,0,0.3,0,0.4,0.1c0.2,0,0.4,0.1,0.6,0.1c0.2,0,0.4,0.1,0.6,0.1c4.6,0.9,8.4,2,11.4,3.2
			c3.1,1.3,5.6,3.3,7.7,6.1c2,2.8,3.1,6.7,3.1,11.6v0.1c0,4.6-1.1,8.5-3.2,11.8s-5.3,5.8-9.4,7.5c-4.1,1.7-9.1,2.6-14.8,2.6
			C515.4,146.6,513.7,146.6,513.7,146.6z"/>
		<path d="M558.7,73.7h13.6v72.1h-13.6V73.7z M565.6,132.7h17.3c4.5,0,7.9-1.1,10.4-3.2c2.4-2.1,3.7-5.2,3.7-9.1V99.2
			c0-3.9-1.2-7-3.7-9.1c-2.4-2.1-5.9-3.2-10.4-3.2h-17.3V73.7h17c6,0,11.1,1,15.4,3c4.2,2,7.5,5,9.7,8.8c2.2,3.9,3.3,8.5,3.3,14V120
			c0,5.2-1.1,9.7-3.2,13.6c-2.1,3.9-5.3,6.9-9.6,9c-4.3,2.1-9.5,3.2-15.7,3.2h-17V132.7z"/>
		<path d="M638.4,145.8h-14.1V73.7h14.1V145.8z"/>
		<path d="M653.3,73.7h16.6l26.8,55.2l-1.2,1.3V73.7h13v72h-16.7l-26.7-54.4l1.2-1.3v55.7h-13V73.7z"/>
		<path d="M735.4,143.3c-4-2.2-7.1-5.3-9.2-9.3c-2.2-4-3.3-8.7-3.3-14V99.6c0-5.3,1.1-9.9,3.3-14c2.2-4,5.3-7.1,9.2-9.3
			c4-2.2,8.6-3.3,13.8-3.3s9.8,1.1,13.8,3.3c4,2.2,7.1,5.3,9.2,9.3c2.2,4,3.3,8.7,3.3,14V120c0,5.3-1.1,9.9-3.3,14
			c-2.2,4-5.3,7.1-9.2,9.3c-4,2.2-8.6,3.3-13.8,3.3S739.4,145.5,735.4,143.3z M755.7,131.4c1.9-1,3.3-2.5,4.3-4.4
			c1-1.9,1.5-4.1,1.5-6.6V99.2c0-2.5-0.5-4.7-1.5-6.6c-1-1.9-2.4-3.4-4.3-4.4c-1.9-1-4-1.6-6.4-1.6c-2.4,0-4.6,0.5-6.4,1.6
			s-3.3,2.5-4.3,4.4c-1,1.9-1.5,4.1-1.5,6.6v21.1c0,2.5,0.5,4.7,1.5,6.6c1,1.9,2.4,3.4,4.3,4.4s4,1.6,6.4,1.6
			C751.7,133,753.8,132.4,755.7,131.4z"/>
		<path d="M807.4,146.6c0,0-1.6-0.3-4.9-1c-3.3-0.7-6.4-1.7-9.3-3c-2.9-1.3-5.5-2.9-7.8-4.8l6.3-11.2c2.8,2.3,6,4,9.6,5.3
			c3.6,1.2,7.4,1.9,11.2,1.9c4.4,0,7.9-0.8,10.3-2.3c2.4-1.5,3.7-3.6,3.7-6.4v0c0-1.9-0.5-3.4-1.6-4.6s-2.5-2-4.3-2.5
			c-1.8-0.5-4-1-6.7-1.4c-0.1,0-0.2-0.1-0.3-0.1c-0.1,0-0.2,0-0.3,0l-1.1-0.1c-4.8-0.8-8.8-1.7-12-2.9c-3.2-1.1-5.9-3.1-8.1-6
			c-2.2-2.9-3.3-6.9-3.3-12.2v0c0-4.7,1-8.6,3.1-11.9c2.1-3.3,5.1-5.8,9.1-7.6c4-1.7,8.8-2.6,14.4-2.6c2.6,0,5.2,0.3,7.9,0.9
			c2.7,0.6,5.3,1.5,7.9,2.6c2.6,1.1,5,2.5,7.3,4.1L832.9,92c-2.8-1.9-5.7-3.4-8.7-4.5c-3-1.1-5.9-1.6-8.7-1.6
			c-4.2,0-7.4,0.7-9.7,2.1c-2.3,1.4-3.4,3.3-3.4,5.8v0c0,2.1,0.6,3.7,1.8,4.9c1.2,1.2,2.7,2.1,4.4,2.7c1.8,0.6,4.2,1.2,7.4,1.8
			c0.1,0,0.3,0.1,0.4,0.1c0.1,0,0.3,0,0.4,0.1c0.2,0,0.4,0.1,0.6,0.1c0.2,0,0.4,0.1,0.6,0.1c4.6,0.9,8.4,2,11.4,3.2
			c3.1,1.3,5.6,3.3,7.7,6.1c2,2.8,3.1,6.7,3.1,11.6v0.1c0,4.6-1.1,8.5-3.2,11.8s-5.3,5.8-9.4,7.5c-4.1,1.7-9.1,2.6-14.8,2.6
			C809.1,146.6,807.4,146.6,807.4,146.6z"/>
		<path d="M873.1,73.7h8.6l27.6,72.1h-14.6l-17.3-49.2l-17.3,49.2h-14.6L873.1,73.7z M858.7,121.2h37.9v13.1h-37.9V121.2z"/>
		<path d="M929.2,143.4c-3.9-2.1-6.9-5.2-9-9.2c-2-4-3.1-8.8-3.1-14.5v-46h13.6v46.3c0,4.1,1.1,7.3,3.3,9.6s5.3,3.4,9.4,3.4
			c4.1,0,7.2-1.1,9.4-3.4s3.3-5.5,3.3-9.6V73.7h13.6v46c0,5.7-1,10.5-3.1,14.5c-2.1,4-5.1,7.1-9,9.2c-3.9,2.1-8.7,3.1-14.3,3.1
			S933.2,145.5,929.2,143.4z"/>
		<path d="M984.7,73.7h13.6v72.1h-13.6V73.7z M990.1,103.7h25.1c1.4,0,2.6-0.3,3.7-1s1.9-1.7,2.5-3c0.6-1.3,0.9-2.8,0.9-4.5
			c0-1.7-0.3-3.2-0.9-4.5c-0.6-1.3-1.4-2.3-2.5-3c-1.1-0.7-2.3-1-3.7-1h-25.1V73.7h26.2c4,0,7.5,0.9,10.5,2.7c3,1.8,5.3,4.3,7,7.6
			c1.7,3.3,2.5,7,2.5,11.3c0,4.3-0.8,8.1-2.5,11.3c-1.7,3.3-4,5.8-7,7.6c-3,1.8-6.5,2.7-10.4,2.7h-26.2V103.7z M1005.3,114.6
			l14.5-2.3l19.4,33.5h-16.5L1005.3,114.6z"/>
	</g>
</g>
</svg>
